HIERARCHY
ROOT Hips
{
	OFFSET 0.000000 97.167313 0.000000
	CHANNELS 6 Xposition Yposition Zposition Xrotation Yrotation Zrotation
	JOINT Spine
	{
		OFFSET 0.000000 13.784798 0.064400
		CHANNELS 3 Xrotation Yrotation Zrotation
		JOINT Spine1
		{
			OFFSET 0.000000 12.037903 0.404700
			CHANNELS 3 Xrotation Yrotation Zrotation
			JOINT Spine2
			{
				OFFSET 0.000000 17.795601 0.420200
				CHANNELS 3 Xrotation Yrotation Zrotation
				JOINT Neck
				{
					OFFSET 0.000000 39.131302 11.954600
					CHANNELS 3 Xrotation Yrotation Zrotation
					JOINT Head
					{
						OFFSET 0.000000 14.456192 15.627699
						CHANNELS 3 Xrotation Yrotation Zrotation
						JOINT HeadTop_End
						{
							OFFSET 0.000000 15.703506 7.603401
							CHANNELS 3 Xrotation Yrotation Zrotation
							End Site
							{
								OFFSET 0.000000 17.447403 0.000000
							}
						}
					}
				}
				JOINT LeftShoulder
				{
					OFFSET 17.399500 24.608795 1.168800
					CHANNELS 3 Xrotation Yrotation Zrotation
					JOINT LeftArm
					{
						OFFSET 18.980635 5.765305 1.818600
						CHANNELS 3 Xrotation Yrotation Zrotation
						JOINT LeftForeArm
						{
							OFFSET 49.290169 0.000000 0.000000
							CHANNELS 3 Xrotation Yrotation Zrotation
							JOINT LeftHand
							{
								OFFSET 31.562012 0.000000 0.000000
								CHANNELS 3 Xrotation Yrotation Zrotation
								JOINT LeftHandThumb1
								{
									OFFSET 6.133995 -4.388519 7.076070
									CHANNELS 3 Xrotation Yrotation Zrotation
									JOINT LeftHandThumb2
									{
										OFFSET 6.037666 -3.485840 3.485847
										CHANNELS 3 Xrotation Yrotation Zrotation
										JOINT LeftHandThumb3
										{
											OFFSET 6.496506 -3.750763 3.750761
											CHANNELS 3 Xrotation Yrotation Zrotation
											JOINT LeftHandThumb4
											{
												OFFSET 5.616882 -3.242905 3.242910
												CHANNELS 3 Xrotation Yrotation Zrotation
												End Site
												{
													OFFSET -1.254608 7.132141 0.375429
												}
											}
										}
									}
								}
								JOINT LeftHandPinky1
								{
									OFFSET 18.920792 -0.453171 -11.426712
									CHANNELS 3 Xrotation Yrotation Zrotation
									JOINT LeftHandPinky2
									{
										OFFSET 4.919586 0.000000 0.000000
										CHANNELS 3 Xrotation Yrotation Zrotation
										JOINT LeftHandPinky3
										{
											OFFSET 5.233047 0.000000 0.000000
											CHANNELS 3 Xrotation Yrotation Zrotation
											JOINT LeftHandPinky4
											{
												OFFSET 5.571716 0.000000 0.000000
												CHANNELS 3 Xrotation Yrotation Zrotation
												End Site
												{
													OFFSET -3.459808 4.342407 -0.466164
												}
											}
										}
									}
								}
								JOINT LeftHandRing1
								{
									OFFSET 22.726120 -0.094986 -6.500475
									CHANNELS 3 Xrotation Yrotation Zrotation
									JOINT LeftHandRing2
									{
										OFFSET 6.408615 0.000000 0.000000
										CHANNELS 3 Xrotation Yrotation Zrotation
										JOINT LeftHandRing3
										{
											OFFSET 6.150223 0.000000 0.000000
											CHANNELS 3 Xrotation Yrotation Zrotation
											JOINT LeftHandRing4
											{
												OFFSET 6.145386 0.000000 0.000000
												CHANNELS 3 Xrotation Yrotation Zrotation
												End Site
												{
													OFFSET -3.671402 4.923981 -0.202372
												}
											}
										}
									}
								}
								JOINT LeftHandMiddle1
								{
									OFFSET 23.373947 0.000000 0.000001
									CHANNELS 3 Xrotation Yrotation Zrotation
									JOINT LeftHandMiddle2
									{
										OFFSET 6.996567 0.000000 0.000000
										CHANNELS 3 Xrotation Yrotation Zrotation
										JOINT LeftHandMiddle3
										{
											OFFSET 7.015945 0.000000 0.000000
											CHANNELS 3 Xrotation Yrotation Zrotation
											JOINT LeftHandMiddle4
											{
												OFFSET 7.721573 0.000000 0.000000
												CHANNELS 3 Xrotation Yrotation Zrotation
												End Site
												{
													OFFSET -4.651108 6.158463 0.251582
												}
											}
										}
									}
								}
								JOINT LeftHandIndex1
								{
									OFFSET 21.310577 -0.490082 6.209344
									CHANNELS 3 Xrotation Yrotation Zrotation
									JOINT LeftHandIndex2
									{
										OFFSET 7.536453 0.000000 0.000000
										CHANNELS 3 Xrotation Yrotation Zrotation
										JOINT LeftHandIndex3
										{
											OFFSET 7.512344 0.000000 0.000000
											CHANNELS 3 Xrotation Yrotation Zrotation
											JOINT LeftHandIndex4
											{
												OFFSET 10.212402 0.000000 0.000001
												CHANNELS 3 Xrotation Yrotation Zrotation
												End Site
												{
													OFFSET -5.180801 8.690506 1.388433
												}
											}
										}
									}
								}
							}
						}
					}
				}
				JOINT RightShoulder
				{
					OFFSET -17.399500 24.608795 1.168800
					CHANNELS 3 Xrotation Yrotation Zrotation
					JOINT RightArm
					{
						OFFSET -18.980635 5.765305 1.818600
						CHANNELS 3 Xrotation Yrotation Zrotation
						JOINT RightForeArm
						{
							OFFSET -49.290169 0.000000 0.000000
							CHANNELS 3 Xrotation Yrotation Zrotation
							JOINT RightHand
							{
								OFFSET -31.562012 0.000000 0.000000
								CHANNELS 3 Xrotation Yrotation Zrotation
								JOINT RightHandThumb1
								{
									OFFSET -6.133995 -4.388519 7.076070
									CHANNELS 3 Xrotation Yrotation Zrotation
									JOINT RightHandThumb2
									{
										OFFSET -6.037666 -3.485840 3.485847
										CHANNELS 3 Xrotation Yrotation Zrotation
										JOINT RightHandThumb3
										{
											OFFSET -6.496506 -3.750763 3.750761
											CHANNELS 3 Xrotation Yrotation Zrotation
											JOINT RightHandThumb4
											{
												OFFSET -5.616882 -3.242905 3.242910
												CHANNELS 3 Xrotation Yrotation Zrotation
												End Site
												{
													OFFSET 1.254608 7.132141 0.375429
												}
											}
										}
									}
								}
								JOINT RightHandIndex1
								{
									OFFSET -21.310577 -0.490082 6.209344
									CHANNELS 3 Xrotation Yrotation Zrotation
									JOINT RightHandIndex2
									{
										OFFSET -7.536453 0.000000 0.000000
										CHANNELS 3 Xrotation Yrotation Zrotation
										JOINT RightHandIndex3
										{
											OFFSET -7.512344 0.000000 0.000000
											CHANNELS 3 Xrotation Yrotation Zrotation
											JOINT RightHandIndex4
											{
												OFFSET -10.212402 0.000000 0.000001
												CHANNELS 3 Xrotation Yrotation Zrotation
												End Site
												{
													OFFSET 5.180801 8.690506 1.388433
												}
											}
										}
									}
								}
								JOINT RightHandMiddle1
								{
									OFFSET -23.373947 0.000000 0.000001
									CHANNELS 3 Xrotation Yrotation Zrotation
									JOINT RightHandMiddle2
									{
										OFFSET -6.996567 0.000000 0.000000
										CHANNELS 3 Xrotation Yrotation Zrotation
										JOINT RightHandMiddle3
										{
											OFFSET -7.015945 0.000000 0.000000
											CHANNELS 3 Xrotation Yrotation Zrotation
											JOINT RightHandMiddle4
											{
												OFFSET -7.721573 0.000000 0.000000
												CHANNELS 3 Xrotation Yrotation Zrotation
												End Site
												{
													OFFSET 4.651108 6.158463 0.251582
												}
											}
										}
									}
								}
								JOINT RightHandRing1
								{
									OFFSET -22.726120 -0.094986 -6.500475
									CHANNELS 3 Xrotation Yrotation Zrotation
									JOINT RightHandRing2
									{
										OFFSET -6.408615 0.000000 0.000000
										CHANNELS 3 Xrotation Yrotation Zrotation
										JOINT RightHandRing3
										{
											OFFSET -6.150223 0.000000 0.000000
											CHANNELS 3 Xrotation Yrotation Zrotation
											JOINT RightHandRing4
											{
												OFFSET -6.145386 0.000000 0.000000
												CHANNELS 3 Xrotation Yrotation Zrotation
												End Site
												{
													OFFSET 3.671402 4.923981 -0.202372
												}
											}
										}
									}
								}
								JOINT RightHandPinky1
								{
									OFFSET -18.920792 -0.453171 -11.426712
									CHANNELS 3 Xrotation Yrotation Zrotation
									JOINT RightHandPinky2
									{
										OFFSET -4.919586 0.000000 0.000000
										CHANNELS 3 Xrotation Yrotation Zrotation
										JOINT RightHandPinky3
										{
											OFFSET -5.233047 0.000000 0.000000
											CHANNELS 3 Xrotation Yrotation Zrotation
											JOINT RightHandPinky4
											{
												OFFSET -5.571716 0.000000 0.000000
												CHANNELS 3 Xrotation Yrotation Zrotation
												End Site
												{
													OFFSET 3.459808 4.342407 -0.466164
												}
											}
										}
									}
								}
							}
						}
					}
				}
			}
		}
	}
	JOINT LeftUpLeg
	{
		OFFSET 19.899099 -7.885101 -3.429500
		CHANNELS 3 Xrotation Yrotation Zrotation
		JOINT LeftLeg
		{
			OFFSET 1.745560 -36.997807 10.304700
			CHANNELS 3 Xrotation Yrotation Zrotation
			JOINT LeftFoot
			{
				OFFSET -1.745558 -29.803308 -13.615400
				CHANNELS 3 Xrotation Yrotation Zrotation
				JOINT LeftToeBase
				{
					OFFSET 1.181900 -18.539904 15.226099
					CHANNELS 3 Xrotation Yrotation Zrotation
					JOINT LeftToe_End
					{
						OFFSET -0.863701 1.402801 16.534700
						CHANNELS 3 Xrotation Yrotation Zrotation
						End Site
						{
							OFFSET 0.000000 16.616566 0.000000
						}
					}
				}
			}
		}
	}
	JOINT RightUpLeg
	{
		OFFSET -19.899099 -7.885101 -3.429500
		CHANNELS 3 Xrotation Yrotation Zrotation
		JOINT RightLeg
		{
			OFFSET -1.745560 -36.997807 10.304700
			CHANNELS 3 Xrotation Yrotation Zrotation
			JOINT RightFoot
			{
				OFFSET 1.745558 -29.803308 -13.615400
				CHANNELS 3 Xrotation Yrotation Zrotation
				JOINT RightToeBase
				{
					OFFSET -1.181900 -18.539904 15.226099
					CHANNELS 3 Xrotation Yrotation Zrotation
					JOINT RightToe_End
					{
						OFFSET 0.863701 1.402801 16.534700
						CHANNELS 3 Xrotation Yrotation Zrotation
						End Site
						{
							OFFSET 0.000000 16.616566 0.000000
						}
					}
				}
			}
		}
	}
}
MOTION
Frames: 4
Frame Time: 0.033333
9.354670 81.577827 4.728891 7.012632 -2.695613 -2.429544 14.372000 4.278393 4.990369 10.294041 1.837265 -0.218947 10.326403 1.607549 -0.289419 1.390588 -0.735036 -1.485799 -19.387340 -6.024619 6.112460 0.000001 0.000000 -0.000000 1.983968 -9.497940 -17.899462 -20.604661 -0.805670 -56.858801 0.000018 -33.134047 0.000013 0.093175 2.902628 -0.705992 -6.000702 -6.126807 4.616768 7.611109 24.884937 2.404781 -4.383225 25.960682 19.454344 0.000001 0.000000 0.000002 2.640054 7.201683 -55.891090 4.762602 5.749277 -79.260691 3.350016 5.291265 -64.655459 -0.000001 0.000002 -0.000002 2.080742 6.774754 -48.984662 6.244821 5.837835 -93.865343 3.408549 5.318473 -65.288597 -0.000001 0.000000 0.000003 1.486149 6.181075 -40.737379 6.360746 5.828898 -95.005951 2.064697 4.464014 -49.625730 -0.000001 0.000001 0.000009 2.394037 7.026986 -52.930872 6.347545 5.830044 -94.875897 2.839137 5.018602 -58.974299 -0.000003 0.000002 -0.000003 4.454285 18.238523 8.600875 -20.293293 5.564390 58.912854 0.000013 29.457557 -0.000002 0.225278 10.077097 2.715792 -7.540280 -3.885179 -4.751879 7.955460 -28.077776 -3.121236 -4.007011 -18.468388 -17.389988 0.000001 0.000002 0.000001 0.498813 -2.163591 28.688065 3.439027 -4.495395 74.821048 2.866243 -4.299728 67.361846 -0.000000 -0.000003 0.000003 1.155687 -5.294759 40.296518 3.380095 -4.479019 74.068047 3.652862 -4.547821 77.533343 0.000001 0.000000 -0.000008 3.184779 -7.123546 48.908683 3.323705 -4.462581 73.344511 3.592224 -4.534038 76.767283 -0.000000 -0.000001 -0.000005 2.368248 -8.360794 56.025839 3.261046 -4.443413 72.537674 3.532016 -4.519514 76.004474 0.000004 -0.000003 0.000002 -38.774721 9.597853 17.774415 59.382102 6.966080 -2.817982 -5.013508 7.127296 -6.739491 -42.955688 0.000012 0.000003 0.000001 0.000001 0.000000 -30.180004 -2.972162 -3.843636 45.599484 -9.035670 -0.652552 -22.691869 -2.227438 9.005811 4.164756 0.000193 -0.003766 -0.000000 -0.000002 0.000000 
9.367376 81.755989 4.612686 7.032616 -2.746370 -2.436404 14.669190 4.334159 5.066041 10.452931 1.888816 -0.216536 10.487131 1.644335 -0.293505 1.313110 -0.741342 -1.473476 -19.361059 -6.007940 6.110715 0.000001 0.000000 -0.000000 1.929279 -9.583901 -18.123659 -21.412488 -1.223894 -56.564420 0.000011 -33.572309 0.000004 0.174877 3.570811 -0.951448 -6.000705 -6.126805 4.616771 7.611109 24.884935 2.404784 -4.383224 25.960678 19.454339 0.000002 -0.000000 -0.000002 2.646844 7.206236 -55.971204 4.782554 5.753003 -79.459894 3.361674 5.296746 -64.781824 0.000001 0.000002 -0.000005 2.087011 6.780161 -49.065846 6.265391 5.836416 -94.067571 3.420452 5.323913 -65.416915 0.000000 -0.000001 0.000003 1.491644 6.187403 -40.819601 6.381580 5.827049 -95.211129 2.074817 4.472569 -49.755630 -0.000001 0.000000 0.000008 2.400869 7.032091 -53.014467 6.368672 5.828206 -95.084047 2.850691 5.025503 -59.106271 -0.000000 0.000005 0.000002 4.525301 18.372697 8.552967 -20.302198 5.559991 58.721315 0.000019 29.477232 -0.000021 -0.076843 9.946945 2.526781 -7.540286 -3.885177 -4.751880 7.955461 -28.077776 -3.121233 -4.007008 -18.468384 -17.389986 0.000001 -0.000000 -0.000004 0.499742 -2.166659 28.731505 3.451705 -4.498784 74.982684 2.878202 -4.304694 67.521051 -0.000003 -0.000003 -0.000001 1.157939 -5.297418 40.339514 3.392540 -4.482542 74.227368 3.665336 -4.550552 77.690369 0.000003 -0.000001 0.000003 3.188271 -7.124588 48.951262 3.335935 -4.466210 73.501564 3.604464 -4.536888 76.921980 -0.000001 -0.000000 -0.000005 2.371860 -8.362616 56.067879 3.273047 -4.447166 72.692344 3.544024 -4.522473 76.156855 -0.000000 -0.000001 -0.000001 -38.457295 9.782028 17.563039 58.919691 7.029536 -2.805043 -5.517314 7.164206 -6.470405 -42.089429 -0.000007 -0.000003 -0.000000 -0.000002 0.000001 -30.159035 -3.000951 -3.808202 45.148565 -9.027345 -0.667032 -22.302460 -2.152572 8.932812 4.164632 0.000185 -0.003720 0.000000 -0.000002 0.000000 
9.371381 81.960754 4.543129 7.021335 -2.824532 -2.449849 14.877296 4.366312 5.140624 10.512847 1.934406 -0.213710 10.549299 1.677316 -0.296061 1.308736 -0.729979 -1.459338 -19.006188 -5.939352 6.127936 0.000001 0.000000 -0.000001 1.886664 -9.659132 -18.293864 -21.852499 -1.421536 -56.397616 0.000011 -33.474641 0.000013 0.391076 3.555859 -1.167330 -6.000701 -6.126804 4.616767 7.611109 24.884934 2.404785 -4.383226 25.960676 19.454342 -0.000000 -0.000005 -0.000000 2.652896 7.210287 -56.042710 4.800388 5.756273 -79.637642 3.372083 5.301620 -64.894597 -0.000000 0.000003 -0.000003 2.092609 6.784972 -49.138283 6.283734 5.835089 -94.248018 3.431078 5.328726 -65.531335 0.000001 -0.000001 -0.000000 1.496551 6.193045 -40.892930 6.400161 5.825327 -95.394179 2.083864 4.480196 -49.871514 -0.000002 0.000000 0.000009 2.406949 7.036636 -53.089039 6.387532 5.826515 -95.269767 2.861009 5.031656 -59.224044 0.000000 0.000003 0.000002 4.586698 18.517877 8.499411 -20.197766 5.593556 58.593474 0.000015 29.458452 0.000012 -0.493286 9.903256 2.318375 -7.540282 -3.885179 -4.751882 7.955463 -28.077779 -3.121235 -4.007009 -18.468386 -17.389991 0.000001 0.000000 -0.000003 0.500577 -2.169377 28.770253 3.463009 -4.501795 75.126849 2.888855 -4.309067 67.663119 -0.000003 -0.000003 0.000003 1.159962 -5.299786 40.377869 3.403666 -4.485663 74.369477 3.676445 -4.552955 77.830463 0.000000 0.000000 -0.000001 3.191439 -7.125531 48.989221 3.346853 -4.469409 73.641679 3.615386 -4.539392 77.060011 0.000003 -0.000002 -0.000007 2.375124 -8.364259 56.105366 3.283749 -4.450475 72.830328 3.554752 -4.525092 76.292817 -0.000001 -0.000001 0.000007 -38.013196 9.970404 17.364472 58.403274 7.089995 -2.793860 -6.049603 7.218406 -6.243068 -41.214444 0.000003 -0.000003 0.000000 -0.000001 0.000001 -30.033233 -3.038187 -3.748431 44.629040 -9.000062 -0.684159 -21.923205 -2.074095 8.845010 4.164485 0.000195 -0.003761 -0.000000 -0.000002 0.000000 
9.366854 82.191498 4.497259 6.980394 -2.942495 -2.472039 14.945193 4.340697 5.213363 10.501804 1.951175 -0.209583 10.539465 1.684608 -0.290284 1.380415 -0.702318 -1.443792 -18.425771 -5.740475 6.153351 -0.000000 0.000000 -0.000001 1.864116 -9.720168 -18.384229 -22.254247 -1.237360 -56.428281 0.000001 -33.113225 -0.000014 0.956476 3.328903 -1.433779 -6.000701 -6.126809 4.616769 7.611115 24.884935 2.404782 -4.383222 25.960685 19.454346 0.000003 0.000002 -0.000001 2.658171 7.213808 -56.104875 4.815893 5.759079 -79.792216 3.381150 5.305847 -64.992672 -0.000000 -0.000002 -0.000001 2.097483 6.789154 -49.201305 6.299688 5.833893 -94.404949 3.440325 5.332923 -65.630926 -0.000001 -0.000001 0.000005 1.500830 6.197951 -40.956721 6.416325 5.823789 -95.553445 2.091744 4.486794 -49.972314 -0.000000 0.000001 0.000007 2.412262 7.040585 -53.153939 6.403941 5.824982 -95.431287 2.870016 5.036955 -59.326470 -0.000002 -0.000002 -0.000001 4.632408 18.690999 8.438939 -20.025461 5.654659 58.512728 0.000011 29.439854 -0.000016 -1.211248 9.875723 2.123512 -7.540281 -3.885178 -4.751880 7.955467 -28.077781 -3.121236 -4.007014 -18.468388 -17.389991 0.000003 -0.000003 0.000003 0.501282 -2.171741 28.803936 3.472847 -4.504396 75.252258 2.898159 -4.312872 67.786704 0.000000 0.000000 0.000002 1.161706 -5.301841 40.411241 3.413332 -4.488350 74.493110 3.686124 -4.555036 77.952355 0.000004 0.000002 -0.000004 3.194177 -7.126359 49.022225 3.356350 -4.472186 73.763557 3.624896 -4.541568 77.180086 -0.000001 0.000001 -0.000003 2.377977 -8.365689 56.137991 3.293061 -4.453329 72.950396 3.564091 -4.527355 76.411123 0.000001 -0.000001 0.000007 -37.472440 10.169836 17.187980 57.833869 7.147706 -2.784073 -6.588843 7.291607 -6.046908 -40.332414 -0.000002 -0.000002 0.000001 -0.000002 -0.000000 -29.833426 -3.085859 -3.658302 44.037132 -8.944587 -0.704554 -21.524245 -1.985507 8.730617 4.164612 0.000196 -0.003741 -0.000000 -0.000000 0.000000 
